# xmcd
#
# Track frame offsets: 
#        151
#        20410
#        34964
#        51228
#        73450
#        77327
#        97292
#        114718
#        123465
#        131527
#        149519
#        173792
#        192949
#        216161
#        233814
#        263012
#
# Disc length: 3761 seconds
#
# Revision: 4
# Processed by: cddbd v1.5.2PL0 Copyright (c) Steve Scherf et al.
# Submitted via: ExactAudioCopyFreeDBPlugin 1.0
#
DISCID=f20eaf10
DTITLE=Boubacar Traoré - Je chanterai pour toi
DYEAR=2002
DGENRE=Afrique
TTITLE0=Mouso Teke Soma Ye
TTITLE1=Diarabi w Ali Farka Touré
TTITLE2=Mariama Kaba w Ballaké Sissoko
TTITLE3=Sa Golo w Rokia Traoré
TTITLE4=Improvisation 1
TTITLE5=Je Chanterai Pour Toi w  Madieye Niang
TTITLE6=Le Monde Est Fait Pour Qu'on S'aime w  Madieye Niang
TTITLE7=Samba
TTITLE8=Adieu Pierrette
TTITLE9=Kalilou
TTITLE10=Duna Ma Yelema w Ali Farka Touré
TTITLE11=Maciré w Kélétigui Diabaté
TTITLE12=Soundiata
TTITLE13=Improvisation 2 w Ali Farka Touré
TTITLE14=Mali Twist vers 1963
TTITLE15=Kayes Ba vers 1963
EXTD=YEAR: 2002
EXTT0=
EXTT1=
EXTT2=
EXTT3=
EXTT4=
EXTT5=
EXTT6=
EXTT7=
EXTT8=
EXTT9=
EXTT10=
EXTT11=
EXTT12=
EXTT13=
EXTT14=
EXTT15=
PLAYORDER=
